<svg width="45" height="45" viewBox="0 0 45 45" fill="none" xmlns="http://www.w3.org/2000/svg">
<path d="M26.9474 44.9716H17.8002C15.2173 44.9716 13.1161 42.8712 13.1161 40.2894V31.8609H4.68415C2.10126 31.8611 0 29.7605 0 27.1788V18.0352C0 15.4533 2.10126 13.3529 4.68415 13.3529H13.1161V4.92443C13.1161 2.34259 15.2173 0.242188 17.8002 0.242188H26.9474C29.5303 0.242188 31.6316 2.34259 31.6316 4.92443V13.3529H40.0635C42.6464 13.3529 44.7477 15.4533 44.7477 18.0352V27.1788C44.7477 29.7607 42.6464 31.8611 40.0635 31.8611H31.6316V40.2896C31.6316 42.8712 29.5303 44.9716 26.9474 44.9716ZM4.68415 15.6357C3.36046 15.6357 2.28366 16.712 2.28366 18.0352V27.1788C2.28366 28.502 3.36046 29.5783 4.68415 29.5783H15.3997V40.2896C15.3997 41.6127 16.4765 42.6891 17.8002 42.6891H26.9474C28.2711 42.6891 29.3479 41.6127 29.3479 40.2896V29.5783H40.0635C41.3872 29.5783 42.464 28.502 42.464 27.1788V18.0352C42.464 16.712 41.3872 15.6357 40.0635 15.6357H29.3479V4.92443C29.3479 3.60128 28.2711 2.52492 26.9474 2.52492H17.8002C16.4765 2.52492 15.3997 3.60128 15.3997 4.92443V15.6357H4.68415Z" fill="#F53838"/>
<path d="M24.9413 12.2446C24.9471 12.8332 24.909 13.7214 24.6664 14.7593C24.3485 16.1196 23.7639 17.3743 22.7966 18.6939C23.2426 19.3409 23.7762 20.0056 24.4106 20.7071C24.9275 21.2786 25.4865 21.847 26.0713 22.4062C26.0722 22.4071 26.0737 22.4069 26.0742 22.4058C26.6291 21.4987 27.12 20.5578 27.5271 19.5826C27.9544 18.5591 28.3957 17.2409 28.0004 15.7666C27.4526 13.724 25.6302 12.6178 24.9413 12.2446Z" fill="#F53838"/>
<path d="M25.6847 9.48337C25.2778 9.17283 24.0825 8.28988 22.3335 8.271C20.5845 8.28988 19.3893 9.17283 18.9823 9.48337C16.7475 11.189 16.5464 13.897 16.5195 14.3574C16.7007 13.9548 17.5033 12.3231 19.7361 11.5335C20.1065 11.4025 21.058 11.0777 22.3333 11.1185C23.6087 11.0778 24.5601 11.4025 24.9306 11.5335C27.1634 12.3231 27.966 13.955 28.1471 14.3574C28.1206 13.897 27.9193 11.189 25.6847 9.48337Z" fill="#F53838"/>
<path d="M28.1475 28.5373H33.2997C28.5569 26.4754 25.825 23.4502 23.4897 20.7426C21.2351 18.1286 20.4599 16.4084 20.1211 14.7422C19.9087 13.6977 19.8964 12.8087 19.9193 12.2207C19.2198 12.5736 17.3662 13.6267 16.7594 15.6526C16.3215 17.1149 16.7243 18.4451 17.1218 19.4806C19.024 24.4369 23.1075 28.5854 26.7307 31.8866C27.155 32.2732 27.629 32.6985 28.1475 33.1547V28.5373Z" fill="#F53838"/>
<path d="M7.60281 29.8242C7.44675 29.8756 7.29033 29.9257 7.13354 29.9722H7.60281V29.8242Z" fill="#F53838"/>
<path d="M18.1977 23.2297C15.7898 25.6943 13.4257 27.1554 11.7243 28.0228C11.4447 28.1653 11.0944 28.3435 10.6958 28.5372H16.5198V32.7081C16.8046 32.4584 17.0895 32.2081 17.3755 31.9537C18.8825 30.6122 20.3241 29.2791 21.7021 27.9605C20.4042 26.49 19.1982 24.9125 18.1977 23.2297Z" fill="#F53838"/>
</svg>
