<svg width="180" height="57" viewBox="0 0 180 57" fill="none" xmlns="http://www.w3.org/2000/svg">
<g clip-path="url(#clip0)">
<path d="M64.3772 19.6941C64.3772 18.2187 65.4811 17.0103 67.0517 17.0103C68.0075 17.0103 68.5854 17.3439 69.0817 17.8185L68.4964 18.4933C68.0817 18.1078 67.637 17.8483 67.0443 17.8483C66.0515 17.8483 65.3328 18.664 65.3328 19.6945C65.3328 20.7105 66.0515 21.5408 67.0443 21.5408C67.6813 21.5408 68.0889 21.2813 68.5333 20.866L69.1186 21.4592C68.5779 22.0226 67.9852 22.3786 67.0145 22.3786C65.5034 22.3782 64.3772 21.1992 64.3772 19.6941Z" fill="#161616"/>
<path d="M71.3484 17.9441H69.7036V17.0991H73.9118V17.9441H72.2671V22.2891H71.3484V17.9441Z" fill="#161616"/>
<path d="M76.045 17.062H76.8896L79.1714 22.2892H78.2084L77.6823 21.0361H75.2299L74.6965 22.2892H73.7629L76.045 17.062ZM77.3489 20.2279L76.4525 18.1519L75.5634 20.2279H77.3489Z" fill="#161616"/>
<path d="M80.06 17.0991H82.3863C82.979 17.0991 83.4457 17.2621 83.742 17.5586C83.9718 17.7886 84.0903 18.0702 84.0903 18.4336C84.0903 19.0563 83.7346 19.39 83.3493 19.5902C83.9569 19.7978 84.3791 20.1464 84.3791 20.8656C84.3791 21.7925 83.6161 22.2891 82.4602 22.2891H80.0598V17.0991H80.06ZM82.2011 19.2865C82.7864 19.2865 83.179 19.0565 83.179 18.5673C83.179 18.1594 82.853 17.9074 82.2678 17.9074H80.9564V19.2865H82.2011ZM82.4678 21.4811C83.09 21.4811 83.468 21.2365 83.468 20.7545C83.468 20.3168 83.1198 20.0573 82.4011 20.0573H80.9564V21.4809H82.4678V21.4811Z" fill="#161616"/>
<path d="M85.4082 17.0991H87.453C88.6605 17.0991 89.4238 17.7886 89.4238 18.8489C89.4238 20.0129 88.4902 20.621 87.3494 20.621H86.3197V22.2891H85.4084V17.0991H85.4082ZM87.3789 19.7978C88.0678 19.7978 88.4977 19.4123 88.4977 18.8563C88.4977 18.2483 88.0606 17.9295 87.3789 17.9295H86.3195V19.7978H87.3789Z" fill="#161616"/>
<path d="M90.1272 19.6941C90.1272 18.2336 91.2534 17.0103 92.8461 17.0103C94.439 17.0103 95.5503 18.2187 95.5503 19.6941C95.5503 21.1548 94.4242 22.3782 92.8314 22.3782C91.2385 22.3782 90.1272 21.1695 90.1272 19.6941ZM94.5945 19.6941C94.5945 18.6859 93.861 17.8478 92.8312 17.8478C91.8015 17.8478 91.0828 18.671 91.0828 19.6941C91.0828 20.7026 91.8163 21.5404 92.8461 21.5404C93.876 21.5404 94.5945 20.7174 94.5945 19.6941Z" fill="#161616"/>
<path d="M96.6536 17.0991H100.884V22.2891H99.9726V17.922H97.5648V22.2891H96.6536V17.0991Z" fill="#161616"/>
<path d="M101.987 19.6941C101.987 18.2336 103.113 17.0103 104.706 17.0103C106.299 17.0103 107.41 18.2187 107.41 19.6941C107.41 21.1548 106.284 22.3782 104.691 22.3782C103.098 22.3782 101.987 21.1695 101.987 19.6941ZM106.454 19.6941C106.454 18.6859 105.721 17.8478 104.691 17.8478C103.661 17.8478 102.943 18.671 102.943 19.6941C102.943 20.7026 103.676 21.5404 104.706 21.5404C105.736 21.5404 106.454 20.7174 106.454 19.6941Z" fill="#161616"/>
<path d="M107.588 22.2668L107.676 21.5178C107.743 21.5399 107.862 21.5622 107.973 21.5622C108.499 21.5622 108.988 21.2286 108.988 18.1218V17.0986H112.544V22.2887H111.632V17.9216H109.84V18.3887C109.84 21.688 109.24 22.3479 108.217 22.3479C108.017 22.3482 107.728 22.3038 107.588 22.2668Z" fill="#161616"/>
<path d="M113.884 17.0991H114.788V18.9675H115.981C117.144 18.9675 117.929 19.5458 117.929 20.5912C117.929 21.6367 117.174 22.2891 115.974 22.2891H113.884V17.0991ZM115.959 21.4737C116.633 21.4737 117.026 21.1695 117.026 20.5838C117.026 20.0499 116.633 19.7609 115.944 19.7609H114.788V21.4737H115.959Z" fill="#161616"/>
<path d="M118.655 19.6941C118.655 18.2187 119.759 17.0103 121.329 17.0103C122.285 17.0103 122.863 17.3439 123.359 17.8185L122.774 18.4933C122.359 18.1078 121.915 17.8483 121.322 17.8483C120.329 17.8483 119.61 18.664 119.61 19.6945C119.61 20.7105 120.329 21.5408 121.322 21.5408C121.959 21.5408 122.366 21.2813 122.811 20.866L123.396 21.4592C122.856 22.0226 122.263 22.3786 121.292 22.3786C119.781 22.3782 118.655 21.1992 118.655 19.6941Z" fill="#161616"/>
<path d="M124.352 17.0991H125.263V19.709L127.73 17.0991H128.849L126.693 19.3309L128.945 22.2891H127.841L126.07 19.9536L125.263 20.784V22.2891H124.352V17.0991H124.352Z" fill="#161616"/>
<path d="M129.722 17.0991H130.619V20.8877L133.241 17.0991H134.093V22.2891H133.197V18.5078L130.582 22.2891H129.722V17.0991Z" fill="#161616"/>
<path d="M135.434 17.0989H136.33V20.8875L138.953 17.0989H139.805V22.2889H138.908V18.5075L136.293 22.2889H135.434V17.0989ZM136.478 15.653L137.034 15.5493C137.123 15.8609 137.316 16.0537 137.649 16.0537C137.982 16.0537 138.168 15.8609 138.264 15.5493L138.812 15.653C138.716 16.2908 138.279 16.691 137.649 16.691C137.019 16.691 136.582 16.2908 136.478 15.653Z" fill="#161616"/>
<path d="M143.367 17.0991H144.279V19.709L146.746 17.0991H147.864L145.709 19.3309L147.961 22.2891H146.857L145.086 19.9536L144.279 20.784V22.2891H143.367V17.0991Z" fill="#161616"/>
<path d="M148.739 17.0991H150.783C151.991 17.0991 152.754 17.7886 152.754 18.8489C152.754 20.0129 151.821 20.621 150.68 20.621H149.65V22.2891H148.739V17.0991H148.739ZM150.709 19.7978C151.398 19.7978 151.828 19.4123 151.828 18.8563C151.828 18.2483 151.391 17.9295 150.709 17.9295H149.65V19.7978H150.709Z" fill="#161616"/>
<path d="M155.005 17.062H155.85L158.132 22.2892H157.169L156.643 21.0361H154.19L153.657 22.2892H152.724L155.005 17.062ZM156.309 20.2279L155.413 18.1519L154.524 20.2279H156.309Z" fill="#161616"/>
<path d="M159.021 17.0991H162.866V17.9146H159.932V19.264H162.532V20.0794H159.932V21.4734H162.903V22.2889H159.021V17.0991Z" fill="#161616"/>
<path d="M163.984 17.0991H166.31C166.903 17.0991 167.37 17.2621 167.666 17.5586C167.896 17.7886 168.014 18.0702 168.014 18.4336C168.014 19.0563 167.658 19.39 167.273 19.5902C167.881 19.7978 168.303 20.1464 168.303 20.8656C168.303 21.7925 167.54 22.2891 166.384 22.2891H163.984V17.0991H163.984ZM166.125 19.2865C166.71 19.2865 167.103 19.0565 167.103 18.5673C167.103 18.1594 166.777 17.9074 166.192 17.9074H164.88V19.2865H166.125ZM166.392 21.4811C167.014 21.4811 167.392 21.2365 167.392 20.7545C167.392 20.3168 167.044 20.0573 166.325 20.0573H164.88V21.4809H166.392V21.4811Z" fill="#161616"/>
<path d="M169.103 19.6941C169.103 18.2336 170.229 17.0103 171.822 17.0103C173.415 17.0103 174.526 18.2187 174.526 19.6941C174.526 21.1548 173.4 22.3782 171.807 22.3782C170.214 22.3782 169.103 21.1695 169.103 19.6941ZM173.57 19.6941C173.57 18.6859 172.837 17.8478 171.807 17.8478C170.777 17.8478 170.058 18.671 170.058 19.6941C170.058 20.7026 170.792 21.5404 171.822 21.5404C172.851 21.5404 173.57 20.7174 173.57 19.6941Z" fill="#161616"/>
<path d="M177.844 16.691C178.474 16.691 178.911 16.2906 179.007 15.653L178.459 15.5493C178.363 15.8609 178.178 16.0537 177.844 16.0537C177.511 16.0537 177.318 15.8609 177.229 15.5493L176.674 15.653C176.777 16.2908 177.214 16.691 177.844 16.691Z" fill="#161616"/>
<path d="M179.915 22.2891C179.94 22.2037 179.968 22.1194 180 22.0364V17.0991H179.148L176.526 20.8877V17.0991H175.629V22.2891H176.489L179.104 18.5078V22.2891H179.915Z" fill="#161616"/>
<path d="M73.7515 37.5873H64.8738V25.604H67.5082V35.2078H72.2291V25.604H74.8633V35.2078H76.283L75.941 40.0867H73.7515V37.5873Z" fill="#E2001A"/>
<path d="M78.1292 25.604H87.1608V27.9494H80.7464V30.3803H86.3912V32.7255H80.7464V35.2421H87.2464V37.5875H78.1292V25.604Z" fill="#E2001A"/>
<path d="M89.5886 25.604H92.223V30.3458H97.0809V25.604H99.7151V37.5873H97.0809V32.7769H92.223V37.5873H89.5886V25.604Z" fill="#E2001A"/>
<path d="M105.376 28.0349H101.732V25.604H111.653V28.0349H108.01V37.5873H105.376V28.0349Z" fill="#E2001A"/>
<path d="M113.671 25.604H118.563C121.42 25.604 123.147 27.2988 123.147 29.781C123.147 32.5544 120.992 33.9924 118.306 33.9924H116.305V37.5873H113.671V25.604ZM118.392 31.6469C119.709 31.6469 120.479 30.8594 120.479 29.7982C120.479 28.617 119.657 27.9835 118.34 27.9835H116.305V31.6469H118.392Z" fill="#E2001A"/>
<path d="M129.697 31.5951C129.697 28.1884 132.262 25.3979 135.94 25.3979C138.198 25.3979 139.464 26.254 140.576 27.3495L139.002 29.1642C138.078 28.3253 137.292 27.8288 135.923 27.8288C133.905 27.8288 132.451 29.5065 132.451 31.5951C132.451 33.6492 133.87 35.3613 135.923 35.3613C137.292 35.3613 138.13 34.8135 139.07 33.9574L140.747 35.755C139.515 37.0732 138.147 37.7922 135.837 37.7922C132.314 37.7922 129.697 35.0703 129.697 31.5951Z" fill="#E2001A"/>
<path d="M142.85 25.604H152.839V37.5873H150.205V27.9835H145.484V37.5873H142.85V25.604Z" fill="#E2001A"/>
<path d="M166.026 37.5873H163.426V29.7296L158.192 37.5873H155.712V25.604H158.312V33.4616L163.58 25.604H166.026V37.5873Z" fill="#E2001A"/>
<path d="M167.633 35.2078H168.762C169.651 33.1363 170.079 31.0993 170.079 27.0077V25.604H178.785V35.2078H180.222L179.88 40.0867H177.673V37.5873H170.181L170.01 40.0867H167.633V35.2078ZM172.61 27.9835V29.1989C172.61 31.7326 172.217 33.5473 171.533 35.2078H176.151V27.9835H172.61Z" fill="#E2001A"/>
<path d="M33.4148 55.832H22.0723C18.8695 55.832 16.2639 53.2243 16.2639 50.019V39.5551H5.80834C2.60557 39.5553 0 36.9475 0 33.7424V22.3906C0 19.1853 2.60557 16.5776 5.80834 16.5776H16.2639V6.11374C16.2639 2.90842 18.8695 0.300781 22.0723 0.300781H33.4148C36.6176 0.300781 39.2232 2.90842 39.2232 6.11374V16.5776H49.6788C52.8815 16.5776 55.4871 19.1853 55.4871 22.3906V33.7424C55.4871 36.9477 52.8815 39.5553 49.6788 39.5553H39.2232V50.0192C39.2232 53.2243 36.6176 55.832 33.4148 55.832ZM5.80834 19.4116C4.16697 19.4116 2.83174 20.7479 2.83174 22.3906V33.7424C2.83174 35.385 4.16697 36.7213 5.80834 36.7213H19.0957V50.0192C19.0957 51.6619 20.4309 52.9982 22.0723 52.9982H33.4148C35.0562 52.9982 36.3914 51.6619 36.3914 50.0192V36.7213H49.6788C51.3201 36.7213 52.6553 35.385 52.6553 33.7424V22.3906C52.6553 20.7479 51.3201 19.4116 49.6788 19.4116H36.3914V6.11374C36.3914 4.47106 35.0562 3.13478 33.4148 3.13478H22.0723C20.4309 3.13478 19.0957 4.47106 19.0957 6.11374V19.4116H5.80834Z" fill="#E2001A"/>
<path d="M30.9272 15.2017C30.9344 15.9324 30.8871 17.0351 30.5864 18.3236C30.1921 20.0125 29.4672 21.5701 28.2678 23.2083C28.8209 24.0116 29.4825 24.8368 30.2692 25.7077C30.9101 26.4172 31.6033 27.1229 32.3285 27.8171C32.3296 27.8182 32.3314 27.818 32.3321 27.8167C33.0201 26.6905 33.6288 25.5224 34.1336 24.3117C34.6635 23.041 35.2107 21.4044 34.7205 19.5742C34.0412 17.0382 31.7815 15.665 30.9272 15.2017Z" fill="#E2001A"/>
<path d="M31.8492 11.7732C31.3446 11.3877 29.8625 10.2915 27.6937 10.2681C25.525 10.2915 24.0429 11.3877 23.5382 11.7732C20.7671 13.8907 20.5177 17.2527 20.4844 17.8243C20.709 17.3244 21.7043 15.2987 24.4729 14.3184C24.9323 14.1558 26.112 13.7525 27.6935 13.8032C29.2749 13.7527 30.4547 14.1558 30.9141 14.3184C33.6827 15.2987 34.678 17.3246 34.9026 17.8243C34.8697 17.2527 34.6201 13.8907 31.8492 11.7732Z" fill="#E2001A"/>
<path d="M34.9029 35.4287H41.2915C35.4104 32.8689 32.0229 29.1132 29.1272 25.7517C26.3315 22.5064 25.3702 20.3709 24.9501 18.3023C24.6867 17.0055 24.6714 15.9019 24.6998 15.1719C23.8325 15.6099 21.534 16.9174 20.7816 19.4326C20.2386 21.2479 20.7381 22.8994 21.231 24.185C23.5896 30.3382 28.6532 35.4885 33.1459 39.5869C33.6722 40.0669 34.2599 40.5949 34.9029 41.1612V35.4287Z" fill="#E2001A"/>
<path d="M9.42735 37.0264C9.23384 37.0902 9.03987 37.1524 8.84546 37.2101H9.42735V37.0264Z" fill="#E2001A"/>
<path d="M22.5649 28.8394C19.579 31.899 16.6475 33.7131 14.5377 34.7898C14.191 34.9668 13.7567 35.188 13.2625 35.4286H20.4842V40.6066C20.8374 40.2966 21.1907 39.986 21.5452 39.6701C23.4139 38.0046 25.2015 36.3496 26.9102 34.7125C25.3009 32.887 23.8055 30.9284 22.5649 28.8394Z" fill="#E2001A"/>
</g>
<defs>
<clipPath id="clip0">
<rect width="180" height="56.5385" fill="white"/>
</clipPath>
</defs>
</svg>
